<?xml version="1.0" encoding="UTF-8" standalone="no"?>
<!DOCTYPE svg PUBLIC "-//W3C//DTD SVG 1.1//EN"
 "http://www.w3.org/Graphics/SVG/1.1/DTD/svg11.dtd">
<!-- Generated by graphviz version 2.47.0 (20210316.0004)
 -->
<!-- Title: dependencies Pages: 1 -->
<svg width="1474pt" height="284pt"
 viewBox="0.00 0.00 1474.00 284.00" xmlns="http://www.w3.org/2000/svg" xmlns:xlink="http://www.w3.org/1999/xlink">
<g id="graph0" class="graph" transform="scale(1 1) rotate(0) translate(4 280)">
<title>dependencies</title>
<polygon fill="white" stroke="transparent" points="-4,4 -4,-280 1470,-280 1470,4 -4,4"/>
<text text-anchor="start" x="712.01" y="-42.4" font-family="sans-serif" font-weight="bold" font-size="14.00">Legend</text>
<polygon fill="#ffffb3" stroke="transparent" points="499,-10 499,-30 519,-30 519,-10 499,-10"/>
<text text-anchor="start" x="522.63" y="-15.4" font-family="sans-serif" font-size="14.00"> &#160;Declarations</text>
<polygon fill="#8dd3c7" stroke="transparent" points="612,-10 612,-30 632,-30 632,-10 612,-10"/>
<text text-anchor="start" x="635.73" y="-15.4" font-family="sans-serif" font-size="14.00"> &#160;Module</text>
<polygon fill="#80b1d3" stroke="transparent" points="698,-10 698,-30 718,-30 718,-10 698,-10"/>
<text text-anchor="start" x="721.78" y="-15.4" font-family="sans-serif" font-size="14.00"> &#160;Bootstrap</text>
<polygon fill="#fdb462" stroke="transparent" points="795,-10 795,-30 815,-30 815,-10 795,-10"/>
<text text-anchor="start" x="818.67" y="-15.4" font-family="sans-serif" font-size="14.00"> &#160;Providers</text>
<polygon fill="#fb8072" stroke="transparent" points="891,-10 891,-30 911,-30 911,-10 891,-10"/>
<text text-anchor="start" x="914.73" y="-15.4" font-family="sans-serif" font-size="14.00"> &#160;Exports</text>
<g id="clust1" class="cluster">
<title>cluster_AppModule</title>
<polygon fill="none" stroke="black" stroke-dasharray="1,5" points="8,-70 8,-268 1458,-268 1458,-70 8,-70"/>
</g>
<g id="clust2" class="cluster">
<title>cluster_AppModule_declarations</title>
<polygon fill="none" stroke="black" points="394,-78 394,-130 1450,-130 1450,-78 394,-78"/>
</g>
<g id="clust13" class="cluster">
<title>cluster_AppModule_providers</title>
<polygon fill="none" stroke="black" points="168,-78 168,-130 386,-130 386,-78 168,-78"/>
</g>
<g id="clust10" class="cluster">
<title>cluster_AppModule_imports</title>
<polygon fill="none" stroke="black" points="16,-78 16,-130 160,-130 160,-78 16,-78"/>
</g>
<g id="clust12" class="cluster">
<title>cluster_AppModule_bootstrap</title>
<polygon fill="none" stroke="black" points="702,-208 702,-260 826,-260 826,-208 702,-208"/>
</g>
<!-- AllInitiativeComponent -->
<g id="node1" class="node">
<title>AllInitiativeComponent</title>
<polygon fill="#ffffb3" stroke="black" points="1441.76,-122 1292.24,-122 1292.24,-86 1441.76,-86 1441.76,-122"/>
<text text-anchor="middle" x="1367" y="-99.8" font-family="Times,serif" font-size="14.00">AllInitiativeComponent</text>
</g>
<!-- AppModule -->
<g id="node8" class="node">
<title>AppModule</title>
<polygon fill="#8dd3c7" stroke="black" points="805.66,-187 802.66,-191 781.66,-191 778.66,-187 722.34,-187 722.34,-151 805.66,-151 805.66,-187"/>
<text text-anchor="middle" x="764" y="-164.8" font-family="Times,serif" font-size="14.00">AppModule</text>
</g>
<!-- AllInitiativeComponent&#45;&gt;AppModule -->
<g id="edge1" class="edge">
<title>AllInitiativeComponent&#45;&gt;AppModule</title>
<path fill="none" stroke="black" d="M1367,-122.01C1367,-144.49 1367,-180 1367,-180 1367,-180 815.92,-180 815.92,-180"/>
<polygon fill="black" stroke="black" points="815.92,-176.5 805.92,-180 815.92,-183.5 815.92,-176.5"/>
</g>
<!-- AppComponent -->
<g id="node2" class="node">
<title>AppComponent</title>
<polygon fill="#ffffb3" stroke="black" points="1273.94,-122 1168.06,-122 1168.06,-86 1273.94,-86 1273.94,-122"/>
<text text-anchor="middle" x="1221" y="-99.8" font-family="Times,serif" font-size="14.00">AppComponent</text>
</g>
<!-- AppComponent&#45;&gt;AppModule -->
<g id="edge2" class="edge">
<title>AppComponent&#45;&gt;AppModule</title>
<path fill="none" stroke="black" d="M1221,-122.13C1221,-142.57 1221,-173 1221,-173 1221,-173 815.77,-173 815.77,-173"/>
<polygon fill="black" stroke="black" points="815.77,-169.5 805.77,-173 815.77,-176.5 815.77,-169.5"/>
</g>
<!-- CallbackComponent -->
<g id="node3" class="node">
<title>CallbackComponent</title>
<polygon fill="#ffffb3" stroke="black" points="1150.59,-122 1019.41,-122 1019.41,-86 1150.59,-86 1150.59,-122"/>
<text text-anchor="middle" x="1085" y="-99.8" font-family="Times,serif" font-size="14.00">CallbackComponent</text>
</g>
<!-- CallbackComponent&#45;&gt;AppModule -->
<g id="edge3" class="edge">
<title>CallbackComponent&#45;&gt;AppModule</title>
<path fill="none" stroke="black" d="M1085,-122.27C1085,-140.56 1085,-166 1085,-166 1085,-166 815.97,-166 815.97,-166"/>
<polygon fill="black" stroke="black" points="815.97,-162.5 805.97,-166 815.97,-169.5 815.97,-162.5"/>
</g>
<!-- NavBarComponent -->
<g id="node4" class="node">
<title>NavBarComponent</title>
<polygon fill="#ffffb3" stroke="black" points="1001.37,-122 876.63,-122 876.63,-86 1001.37,-86 1001.37,-122"/>
<text text-anchor="middle" x="939" y="-99.8" font-family="Times,serif" font-size="14.00">NavBarComponent</text>
</g>
<!-- NavBarComponent&#45;&gt;AppModule -->
<g id="edge4" class="edge">
<title>NavBarComponent&#45;&gt;AppModule</title>
<path fill="none" stroke="black" d="M939,-122.01C939,-138.05 939,-159 939,-159 939,-159 815.92,-159 815.92,-159"/>
<polygon fill="black" stroke="black" points="815.92,-155.5 805.92,-159 815.92,-162.5 815.92,-155.5"/>
</g>
<!-- NewInitiativeFormComponent -->
<g id="node5" class="node">
<title>NewInitiativeFormComponent</title>
<polygon fill="#ffffb3" stroke="black" points="858.14,-122 669.86,-122 669.86,-86 858.14,-86 858.14,-122"/>
<text text-anchor="middle" x="764" y="-99.8" font-family="Times,serif" font-size="14.00">NewInitiativeFormComponent</text>
</g>
<!-- NewInitiativeFormComponent&#45;&gt;AppModule -->
<g id="edge5" class="edge">
<title>NewInitiativeFormComponent&#45;&gt;AppModule</title>
<path fill="none" stroke="black" d="M764,-122.11C764,-122.11 764,-140.99 764,-140.99"/>
<polygon fill="black" stroke="black" points="760.5,-140.99 764,-150.99 767.5,-140.99 760.5,-140.99"/>
</g>
<!-- SignInComponent -->
<g id="node6" class="node">
<title>SignInComponent</title>
<polygon fill="#ffffb3" stroke="black" points="651.17,-122 532.83,-122 532.83,-86 651.17,-86 651.17,-122"/>
<text text-anchor="middle" x="592" y="-99.8" font-family="Times,serif" font-size="14.00">SignInComponent</text>
</g>
<!-- SignInComponent&#45;&gt;AppModule -->
<g id="edge6" class="edge">
<title>SignInComponent&#45;&gt;AppModule</title>
<path fill="none" stroke="black" d="M592,-122.01C592,-138.05 592,-159 592,-159 592,-159 711.92,-159 711.92,-159"/>
<polygon fill="black" stroke="black" points="711.92,-162.5 721.92,-159 711.92,-155.5 711.92,-162.5"/>
</g>
<!-- Test3Component -->
<g id="node7" class="node">
<title>Test3Component</title>
<polygon fill="#ffffb3" stroke="black" points="514.44,-122 401.56,-122 401.56,-86 514.44,-86 514.44,-122"/>
<text text-anchor="middle" x="458" y="-99.8" font-family="Times,serif" font-size="14.00">Test3Component</text>
</g>
<!-- Test3Component&#45;&gt;AppModule -->
<g id="edge7" class="edge">
<title>Test3Component&#45;&gt;AppModule</title>
<path fill="none" stroke="black" d="M458,-122.27C458,-140.56 458,-166 458,-166 458,-166 712.09,-166 712.09,-166"/>
<polygon fill="black" stroke="black" points="712.09,-169.5 722.09,-166 712.09,-162.5 712.09,-169.5"/>
</g>
<!-- AppComponent  -->
<g id="node10" class="node">
<title>AppComponent </title>
<polygon fill="#80b1d3" stroke="black" points="818.44,-252 709.56,-252 709.56,-216 818.44,-216 818.44,-252"/>
<text text-anchor="middle" x="764" y="-229.8" font-family="Times,serif" font-size="14.00">AppComponent </text>
</g>
<!-- AppModule&#45;&gt;AppComponent  -->
<g id="edge9" class="edge">
<title>AppModule&#45;&gt;AppComponent </title>
<path fill="none" stroke="black" stroke-dasharray="1,5" d="M764,-187.11C764,-187.11 764,-205.99 764,-205.99"/>
<polygon fill="black" stroke="black" points="760.5,-205.99 764,-215.99 767.5,-205.99 760.5,-205.99"/>
</g>
<!-- AppRoutingModule -->
<g id="node9" class="node">
<title>AppRoutingModule</title>
<polygon fill="#8dd3c7" stroke="black" points="152.27,-122 149.27,-126 128.27,-126 125.27,-122 23.73,-122 23.73,-86 152.27,-86 152.27,-122"/>
<text text-anchor="middle" x="88" y="-99.8" font-family="Times,serif" font-size="14.00">AppRoutingModule</text>
</g>
<!-- AppRoutingModule&#45;&gt;AppModule -->
<g id="edge8" class="edge">
<title>AppRoutingModule&#45;&gt;AppModule</title>
<path fill="none" stroke="black" d="M88,-122.01C88,-144.49 88,-180 88,-180 88,-180 712.22,-180 712.22,-180"/>
<polygon fill="black" stroke="black" points="712.22,-183.5 722.22,-180 712.22,-176.5 712.22,-183.5"/>
</g>
<!-- AuthHeaderInterceptor -->
<g id="node11" class="node">
<title>AuthHeaderInterceptor</title>
<ellipse fill="#fdb462" stroke="black" cx="277" cy="-104" rx="100.66" ry="18"/>
<text text-anchor="middle" x="277" y="-99.8" font-family="Times,serif" font-size="14.00">AuthHeaderInterceptor</text>
</g>
<!-- AuthHeaderInterceptor&#45;&gt;AppModule -->
<g id="edge10" class="edge">
<title>AuthHeaderInterceptor&#45;&gt;AppModule</title>
<path fill="none" stroke="black" d="M277,-122.13C277,-142.57 277,-173 277,-173 277,-173 712.06,-173 712.06,-173"/>
<polygon fill="black" stroke="black" points="712.06,-176.5 722.06,-173 712.06,-169.5 712.06,-176.5"/>
</g>
</g>
</svg>
