<?xml version="1.0" encoding="UTF-8" standalone="no"?>
<!DOCTYPE svg PUBLIC "-//W3C//DTD SVG 1.1//EN"
 "http://www.w3.org/Graphics/SVG/1.1/DTD/svg11.dtd">
<!-- Generated by graphviz version 2.47.0 (20210316.0004)
 -->
<!-- Title: dependencies Pages: 1 -->
<svg width="1744pt" height="284pt"
 viewBox="0.00 0.00 1744.00 284.00" xmlns="http://www.w3.org/2000/svg" xmlns:xlink="http://www.w3.org/1999/xlink">
<g id="graph0" class="graph" transform="scale(1 1) rotate(0) translate(4 280)">
<title>dependencies</title>
<polygon fill="white" stroke="transparent" points="-4,4 -4,-280 1740,-280 1740,4 -4,4"/>
<text text-anchor="start" x="847.01" y="-42.4" font-family="sans-serif" font-weight="bold" font-size="14.00">Legend</text>
<polygon fill="#ffffb3" stroke="transparent" points="634,-10 634,-30 654,-30 654,-10 634,-10"/>
<text text-anchor="start" x="657.63" y="-15.4" font-family="sans-serif" font-size="14.00"> &#160;Declarations</text>
<polygon fill="#8dd3c7" stroke="transparent" points="747,-10 747,-30 767,-30 767,-10 747,-10"/>
<text text-anchor="start" x="770.73" y="-15.4" font-family="sans-serif" font-size="14.00"> &#160;Module</text>
<polygon fill="#80b1d3" stroke="transparent" points="833,-10 833,-30 853,-30 853,-10 833,-10"/>
<text text-anchor="start" x="856.78" y="-15.4" font-family="sans-serif" font-size="14.00"> &#160;Bootstrap</text>
<polygon fill="#fdb462" stroke="transparent" points="930,-10 930,-30 950,-30 950,-10 930,-10"/>
<text text-anchor="start" x="953.67" y="-15.4" font-family="sans-serif" font-size="14.00"> &#160;Providers</text>
<polygon fill="#fb8072" stroke="transparent" points="1026,-10 1026,-30 1046,-30 1046,-10 1026,-10"/>
<text text-anchor="start" x="1049.73" y="-15.4" font-family="sans-serif" font-size="14.00"> &#160;Exports</text>
<g id="clust1" class="cluster">
<title>cluster_AppModule</title>
<polygon fill="none" stroke="black" stroke-dasharray="1,5" points="8,-70 8,-268 1728,-268 1728,-70 8,-70"/>
</g>
<g id="clust2" class="cluster">
<title>cluster_AppModule_declarations</title>
<polygon fill="none" stroke="black" points="394,-78 394,-130 1720,-130 1720,-78 394,-78"/>
</g>
<g id="clust15" class="cluster">
<title>cluster_AppModule_providers</title>
<polygon fill="none" stroke="black" points="168,-78 168,-130 386,-130 386,-78 168,-78"/>
</g>
<g id="clust12" class="cluster">
<title>cluster_AppModule_imports</title>
<polygon fill="none" stroke="black" points="16,-78 16,-130 160,-130 160,-78 16,-78"/>
</g>
<g id="clust14" class="cluster">
<title>cluster_AppModule_bootstrap</title>
<polygon fill="none" stroke="black" points="877,-208 877,-260 1001,-260 1001,-208 877,-208"/>
</g>
<!-- AllInitiativeComponent -->
<g id="node1" class="node">
<title>AllInitiativeComponent</title>
<polygon fill="#ffffb3" stroke="black" points="1711.76,-122 1562.24,-122 1562.24,-86 1711.76,-86 1711.76,-122"/>
<text text-anchor="middle" x="1637" y="-99.8" font-family="Times,serif" font-size="14.00">AllInitiativeComponent</text>
</g>
<!-- AppModule -->
<g id="node10" class="node">
<title>AppModule</title>
<polygon fill="#8dd3c7" stroke="black" points="980.66,-187 977.66,-191 956.66,-191 953.66,-187 897.34,-187 897.34,-151 980.66,-151 980.66,-187"/>
<text text-anchor="middle" x="939" y="-164.8" font-family="Times,serif" font-size="14.00">AppModule</text>
</g>
<!-- AllInitiativeComponent&#45;&gt;AppModule -->
<g id="edge1" class="edge">
<title>AllInitiativeComponent&#45;&gt;AppModule</title>
<path fill="none" stroke="black" d="M1637,-122.25C1637,-145.02 1637,-181 1637,-181 1637,-181 990.83,-181 990.83,-181"/>
<polygon fill="black" stroke="black" points="990.83,-177.5 980.83,-181 990.83,-184.5 990.83,-177.5"/>
</g>
<!-- AppComponent -->
<g id="node2" class="node">
<title>AppComponent</title>
<polygon fill="#ffffb3" stroke="black" points="1543.94,-122 1438.06,-122 1438.06,-86 1543.94,-86 1543.94,-122"/>
<text text-anchor="middle" x="1491" y="-99.8" font-family="Times,serif" font-size="14.00">AppComponent</text>
</g>
<!-- AppComponent&#45;&gt;AppModule -->
<g id="edge2" class="edge">
<title>AppComponent&#45;&gt;AppModule</title>
<path fill="none" stroke="black" d="M1491,-122.28C1491,-143.32 1491,-175 1491,-175 1491,-175 990.94,-175 990.94,-175"/>
<polygon fill="black" stroke="black" points="990.94,-171.5 980.94,-175 990.94,-178.5 990.94,-171.5"/>
</g>
<!-- CallbackComponent -->
<g id="node3" class="node">
<title>CallbackComponent</title>
<polygon fill="#ffffb3" stroke="black" points="1420.59,-122 1289.41,-122 1289.41,-86 1420.59,-86 1420.59,-122"/>
<text text-anchor="middle" x="1355" y="-99.8" font-family="Times,serif" font-size="14.00">CallbackComponent</text>
</g>
<!-- CallbackComponent&#45;&gt;AppModule -->
<g id="edge3" class="edge">
<title>CallbackComponent&#45;&gt;AppModule</title>
<path fill="none" stroke="black" d="M1355,-122.11C1355,-141.34 1355,-169 1355,-169 1355,-169 990.79,-169 990.79,-169"/>
<polygon fill="black" stroke="black" points="990.79,-165.5 980.79,-169 990.79,-172.5 990.79,-165.5"/>
</g>
<!-- HeaderComponent -->
<g id="node4" class="node">
<title>HeaderComponent</title>
<polygon fill="#ffffb3" stroke="black" points="1271.74,-122 1150.26,-122 1150.26,-86 1271.74,-86 1271.74,-122"/>
<text text-anchor="middle" x="1211" y="-99.8" font-family="Times,serif" font-size="14.00">HeaderComponent</text>
</g>
<!-- HeaderComponent&#45;&gt;AppModule -->
<g id="edge4" class="edge">
<title>HeaderComponent&#45;&gt;AppModule</title>
<path fill="none" stroke="black" d="M1211,-122.02C1211,-139.37 1211,-163 1211,-163 1211,-163 990.9,-163 990.9,-163"/>
<polygon fill="black" stroke="black" points="990.9,-159.5 980.9,-163 990.9,-166.5 990.9,-159.5"/>
</g>
<!-- LinksComponent -->
<g id="node5" class="node">
<title>LinksComponent</title>
<polygon fill="#ffffb3" stroke="black" points="1132.72,-122 1019.28,-122 1019.28,-86 1132.72,-86 1132.72,-122"/>
<text text-anchor="middle" x="1076" y="-99.8" font-family="Times,serif" font-size="14.00">LinksComponent</text>
</g>
<!-- LinksComponent&#45;&gt;AppModule -->
<g id="edge5" class="edge">
<title>LinksComponent&#45;&gt;AppModule</title>
<path fill="none" stroke="black" d="M1076,-122.24C1076,-137.57 1076,-157 1076,-157 1076,-157 990.85,-157 990.85,-157"/>
<polygon fill="black" stroke="black" points="990.85,-153.5 980.85,-157 990.85,-160.5 990.85,-153.5"/>
</g>
<!-- NavBarComponent -->
<g id="node6" class="node">
<title>NavBarComponent</title>
<polygon fill="#ffffb3" stroke="black" points="1001.37,-122 876.63,-122 876.63,-86 1001.37,-86 1001.37,-122"/>
<text text-anchor="middle" x="939" y="-99.8" font-family="Times,serif" font-size="14.00">NavBarComponent</text>
</g>
<!-- NavBarComponent&#45;&gt;AppModule -->
<g id="edge6" class="edge">
<title>NavBarComponent&#45;&gt;AppModule</title>
<path fill="none" stroke="black" d="M939,-122.11C939,-122.11 939,-140.99 939,-140.99"/>
<polygon fill="black" stroke="black" points="935.5,-140.99 939,-150.99 942.5,-140.99 935.5,-140.99"/>
</g>
<!-- NewInitiativeFormComponent -->
<g id="node7" class="node">
<title>NewInitiativeFormComponent</title>
<polygon fill="#ffffb3" stroke="black" points="858.14,-122 669.86,-122 669.86,-86 858.14,-86 858.14,-122"/>
<text text-anchor="middle" x="764" y="-99.8" font-family="Times,serif" font-size="14.00">NewInitiativeFormComponent</text>
</g>
<!-- NewInitiativeFormComponent&#45;&gt;AppModule -->
<g id="edge7" class="edge">
<title>NewInitiativeFormComponent&#45;&gt;AppModule</title>
<path fill="none" stroke="black" d="M764,-122.24C764,-137.57 764,-157 764,-157 764,-157 887.08,-157 887.08,-157"/>
<polygon fill="black" stroke="black" points="887.08,-160.5 897.08,-157 887.08,-153.5 887.08,-160.5"/>
</g>
<!-- SignInComponent -->
<g id="node8" class="node">
<title>SignInComponent</title>
<polygon fill="#ffffb3" stroke="black" points="651.17,-122 532.83,-122 532.83,-86 651.17,-86 651.17,-122"/>
<text text-anchor="middle" x="592" y="-99.8" font-family="Times,serif" font-size="14.00">SignInComponent</text>
</g>
<!-- SignInComponent&#45;&gt;AppModule -->
<g id="edge8" class="edge">
<title>SignInComponent&#45;&gt;AppModule</title>
<path fill="none" stroke="black" d="M592,-122.02C592,-139.37 592,-163 592,-163 592,-163 887.14,-163 887.14,-163"/>
<polygon fill="black" stroke="black" points="887.14,-166.5 897.14,-163 887.14,-159.5 887.14,-166.5"/>
</g>
<!-- Test3Component -->
<g id="node9" class="node">
<title>Test3Component</title>
<polygon fill="#ffffb3" stroke="black" points="514.44,-122 401.56,-122 401.56,-86 514.44,-86 514.44,-122"/>
<text text-anchor="middle" x="458" y="-99.8" font-family="Times,serif" font-size="14.00">Test3Component</text>
</g>
<!-- Test3Component&#45;&gt;AppModule -->
<g id="edge9" class="edge">
<title>Test3Component&#45;&gt;AppModule</title>
<path fill="none" stroke="black" d="M458,-122.11C458,-141.34 458,-169 458,-169 458,-169 887.16,-169 887.16,-169"/>
<polygon fill="black" stroke="black" points="887.16,-172.5 897.16,-169 887.16,-165.5 887.16,-172.5"/>
</g>
<!-- AppComponent  -->
<g id="node12" class="node">
<title>AppComponent </title>
<polygon fill="#80b1d3" stroke="black" points="993.44,-252 884.56,-252 884.56,-216 993.44,-216 993.44,-252"/>
<text text-anchor="middle" x="939" y="-229.8" font-family="Times,serif" font-size="14.00">AppComponent </text>
</g>
<!-- AppModule&#45;&gt;AppComponent  -->
<g id="edge11" class="edge">
<title>AppModule&#45;&gt;AppComponent </title>
<path fill="none" stroke="black" stroke-dasharray="1,5" d="M939,-187.11C939,-187.11 939,-205.99 939,-205.99"/>
<polygon fill="black" stroke="black" points="935.5,-205.99 939,-215.99 942.5,-205.99 935.5,-205.99"/>
</g>
<!-- AppRoutingModule -->
<g id="node11" class="node">
<title>AppRoutingModule</title>
<polygon fill="#8dd3c7" stroke="black" points="152.27,-122 149.27,-126 128.27,-126 125.27,-122 23.73,-122 23.73,-86 152.27,-86 152.27,-122"/>
<text text-anchor="middle" x="88" y="-99.8" font-family="Times,serif" font-size="14.00">AppRoutingModule</text>
</g>
<!-- AppRoutingModule&#45;&gt;AppModule -->
<g id="edge10" class="edge">
<title>AppRoutingModule&#45;&gt;AppModule</title>
<path fill="none" stroke="black" d="M88,-122.25C88,-145.02 88,-181 88,-181 88,-181 887.09,-181 887.09,-181"/>
<polygon fill="black" stroke="black" points="887.09,-184.5 897.09,-181 887.09,-177.5 887.09,-184.5"/>
</g>
<!-- AuthHeaderInterceptor -->
<g id="node13" class="node">
<title>AuthHeaderInterceptor</title>
<ellipse fill="#fdb462" stroke="black" cx="277" cy="-104" rx="100.66" ry="18"/>
<text text-anchor="middle" x="277" y="-99.8" font-family="Times,serif" font-size="14.00">AuthHeaderInterceptor</text>
</g>
<!-- AuthHeaderInterceptor&#45;&gt;AppModule -->
<g id="edge12" class="edge">
<title>AuthHeaderInterceptor&#45;&gt;AppModule</title>
<path fill="none" stroke="black" d="M277,-122.28C277,-143.32 277,-175 277,-175 277,-175 887.34,-175 887.34,-175"/>
<polygon fill="black" stroke="black" points="887.34,-178.5 897.34,-175 887.34,-171.5 887.34,-178.5"/>
</g>
</g>
</svg>
