<?xml version="1.0" encoding="UTF-8" standalone="no"?>
<!DOCTYPE svg PUBLIC "-//W3C//DTD SVG 1.1//EN"
 "http://www.w3.org/Graphics/SVG/1.1/DTD/svg11.dtd">
<!-- Generated by graphviz version 2.47.0 (20210316.0004)
 -->
<!-- Title: dependencies Pages: 1 -->
<svg width="1744pt" height="360pt"
 viewBox="0.00 0.00 1744.00 360.00" xmlns="http://www.w3.org/2000/svg" xmlns:xlink="http://www.w3.org/1999/xlink">
<g id="graph0" class="graph" transform="scale(1 1) rotate(0) translate(4 356)">
<title>dependencies</title>
<polygon fill="white" stroke="transparent" points="-4,4 -4,-356 1740,-356 1740,4 -4,4"/>
<text text-anchor="start" x="847.01" y="-42.4" font-family="sans-serif" font-weight="bold" font-size="14.00">Legend</text>
<polygon fill="#ffffb3" stroke="transparent" points="634,-10 634,-30 654,-30 654,-10 634,-10"/>
<text text-anchor="start" x="657.63" y="-15.4" font-family="sans-serif" font-size="14.00"> &#160;Declarations</text>
<polygon fill="#8dd3c7" stroke="transparent" points="747,-10 747,-30 767,-30 767,-10 747,-10"/>
<text text-anchor="start" x="770.73" y="-15.4" font-family="sans-serif" font-size="14.00"> &#160;Module</text>
<polygon fill="#80b1d3" stroke="transparent" points="833,-10 833,-30 853,-30 853,-10 833,-10"/>
<text text-anchor="start" x="856.78" y="-15.4" font-family="sans-serif" font-size="14.00"> &#160;Bootstrap</text>
<polygon fill="#fdb462" stroke="transparent" points="930,-10 930,-30 950,-30 950,-10 930,-10"/>
<text text-anchor="start" x="953.67" y="-15.4" font-family="sans-serif" font-size="14.00"> &#160;Providers</text>
<polygon fill="#fb8072" stroke="transparent" points="1026,-10 1026,-30 1046,-30 1046,-10 1026,-10"/>
<text text-anchor="start" x="1049.73" y="-15.4" font-family="sans-serif" font-size="14.00"> &#160;Exports</text>
<g id="clust1" class="cluster">
<title>cluster_AppModule</title>
<polygon fill="none" stroke="black" stroke-dasharray="1,5" points="8,-146 8,-344 1728,-344 1728,-146 8,-146"/>
</g>
<g id="clust2" class="cluster">
<title>cluster_AppModule_declarations</title>
<polygon fill="none" stroke="black" points="394,-154 394,-206 1720,-206 1720,-154 394,-154"/>
</g>
<g id="clust12" class="cluster">
<title>cluster_AppModule_imports</title>
<polygon fill="none" stroke="black" points="242,-154 242,-206 386,-206 386,-154 242,-154"/>
</g>
<g id="clust14" class="cluster">
<title>cluster_AppModule_bootstrap</title>
<polygon fill="none" stroke="black" points="877,-284 877,-336 1001,-336 1001,-284 877,-284"/>
</g>
<g id="clust15" class="cluster">
<title>cluster_AppModule_providers</title>
<polygon fill="none" stroke="black" points="16,-154 16,-206 234,-206 234,-154 16,-154"/>
</g>
<g id="clust16" class="cluster">
<title>cluster_AppRoutingModule</title>
<polygon fill="none" stroke="black" stroke-dasharray="1,5" points="239,-70 239,-138 389,-138 389,-70 239,-70"/>
</g>
<g id="clust21" class="cluster">
<title>cluster_AppRoutingModule_providers</title>
<polygon fill="none" stroke="black" points="247,-78 247,-130 381,-130 381,-78 247,-78"/>
</g>
<!-- AllInitiativeComponent -->
<g id="node1" class="node">
<title>AllInitiativeComponent</title>
<polygon fill="#ffffb3" stroke="black" points="1711.76,-198 1562.24,-198 1562.24,-162 1711.76,-162 1711.76,-198"/>
<text text-anchor="middle" x="1637" y="-175.8" font-family="Times,serif" font-size="14.00">AllInitiativeComponent</text>
</g>
<!-- AppModule -->
<g id="node10" class="node">
<title>AppModule</title>
<polygon fill="#8dd3c7" stroke="black" points="980.66,-263 977.66,-267 956.66,-267 953.66,-263 897.34,-263 897.34,-227 980.66,-227 980.66,-263"/>
<text text-anchor="middle" x="939" y="-240.8" font-family="Times,serif" font-size="14.00">AppModule</text>
</g>
<!-- AllInitiativeComponent&#45;&gt;AppModule -->
<g id="edge1" class="edge">
<title>AllInitiativeComponent&#45;&gt;AppModule</title>
<path fill="none" stroke="black" d="M1637,-198.25C1637,-221.02 1637,-257 1637,-257 1637,-257 990.83,-257 990.83,-257"/>
<polygon fill="black" stroke="black" points="990.83,-253.5 980.83,-257 990.83,-260.5 990.83,-253.5"/>
</g>
<!-- AppComponent -->
<g id="node2" class="node">
<title>AppComponent</title>
<polygon fill="#ffffb3" stroke="black" points="1543.94,-198 1438.06,-198 1438.06,-162 1543.94,-162 1543.94,-198"/>
<text text-anchor="middle" x="1491" y="-175.8" font-family="Times,serif" font-size="14.00">AppComponent</text>
</g>
<!-- AppComponent&#45;&gt;AppModule -->
<g id="edge2" class="edge">
<title>AppComponent&#45;&gt;AppModule</title>
<path fill="none" stroke="black" d="M1491,-198.28C1491,-219.32 1491,-251 1491,-251 1491,-251 990.94,-251 990.94,-251"/>
<polygon fill="black" stroke="black" points="990.94,-247.5 980.94,-251 990.94,-254.5 990.94,-247.5"/>
</g>
<!-- CallbackComponent -->
<g id="node3" class="node">
<title>CallbackComponent</title>
<polygon fill="#ffffb3" stroke="black" points="1420.59,-198 1289.41,-198 1289.41,-162 1420.59,-162 1420.59,-198"/>
<text text-anchor="middle" x="1355" y="-175.8" font-family="Times,serif" font-size="14.00">CallbackComponent</text>
</g>
<!-- CallbackComponent&#45;&gt;AppModule -->
<g id="edge3" class="edge">
<title>CallbackComponent&#45;&gt;AppModule</title>
<path fill="none" stroke="black" d="M1355,-198.11C1355,-217.34 1355,-245 1355,-245 1355,-245 990.79,-245 990.79,-245"/>
<polygon fill="black" stroke="black" points="990.79,-241.5 980.79,-245 990.79,-248.5 990.79,-241.5"/>
</g>
<!-- HeaderComponent -->
<g id="node4" class="node">
<title>HeaderComponent</title>
<polygon fill="#ffffb3" stroke="black" points="1271.74,-198 1150.26,-198 1150.26,-162 1271.74,-162 1271.74,-198"/>
<text text-anchor="middle" x="1211" y="-175.8" font-family="Times,serif" font-size="14.00">HeaderComponent</text>
</g>
<!-- HeaderComponent&#45;&gt;AppModule -->
<g id="edge4" class="edge">
<title>HeaderComponent&#45;&gt;AppModule</title>
<path fill="none" stroke="black" d="M1211,-198.02C1211,-215.37 1211,-239 1211,-239 1211,-239 990.9,-239 990.9,-239"/>
<polygon fill="black" stroke="black" points="990.9,-235.5 980.9,-239 990.9,-242.5 990.9,-235.5"/>
</g>
<!-- LinksComponent -->
<g id="node5" class="node">
<title>LinksComponent</title>
<polygon fill="#ffffb3" stroke="black" points="1132.72,-198 1019.28,-198 1019.28,-162 1132.72,-162 1132.72,-198"/>
<text text-anchor="middle" x="1076" y="-175.8" font-family="Times,serif" font-size="14.00">LinksComponent</text>
</g>
<!-- LinksComponent&#45;&gt;AppModule -->
<g id="edge5" class="edge">
<title>LinksComponent&#45;&gt;AppModule</title>
<path fill="none" stroke="black" d="M1076,-198.24C1076,-213.57 1076,-233 1076,-233 1076,-233 990.85,-233 990.85,-233"/>
<polygon fill="black" stroke="black" points="990.85,-229.5 980.85,-233 990.85,-236.5 990.85,-229.5"/>
</g>
<!-- NavBarComponent -->
<g id="node6" class="node">
<title>NavBarComponent</title>
<polygon fill="#ffffb3" stroke="black" points="1001.37,-198 876.63,-198 876.63,-162 1001.37,-162 1001.37,-198"/>
<text text-anchor="middle" x="939" y="-175.8" font-family="Times,serif" font-size="14.00">NavBarComponent</text>
</g>
<!-- NavBarComponent&#45;&gt;AppModule -->
<g id="edge6" class="edge">
<title>NavBarComponent&#45;&gt;AppModule</title>
<path fill="none" stroke="black" d="M939,-198.11C939,-198.11 939,-216.99 939,-216.99"/>
<polygon fill="black" stroke="black" points="935.5,-216.99 939,-226.99 942.5,-216.99 935.5,-216.99"/>
</g>
<!-- NewInitiativeFormComponent -->
<g id="node7" class="node">
<title>NewInitiativeFormComponent</title>
<polygon fill="#ffffb3" stroke="black" points="858.14,-198 669.86,-198 669.86,-162 858.14,-162 858.14,-198"/>
<text text-anchor="middle" x="764" y="-175.8" font-family="Times,serif" font-size="14.00">NewInitiativeFormComponent</text>
</g>
<!-- NewInitiativeFormComponent&#45;&gt;AppModule -->
<g id="edge7" class="edge">
<title>NewInitiativeFormComponent&#45;&gt;AppModule</title>
<path fill="none" stroke="black" d="M764,-198.24C764,-213.57 764,-233 764,-233 764,-233 887.08,-233 887.08,-233"/>
<polygon fill="black" stroke="black" points="887.08,-236.5 897.08,-233 887.08,-229.5 887.08,-236.5"/>
</g>
<!-- SignInComponent -->
<g id="node8" class="node">
<title>SignInComponent</title>
<polygon fill="#ffffb3" stroke="black" points="651.17,-198 532.83,-198 532.83,-162 651.17,-162 651.17,-198"/>
<text text-anchor="middle" x="592" y="-175.8" font-family="Times,serif" font-size="14.00">SignInComponent</text>
</g>
<!-- SignInComponent&#45;&gt;AppModule -->
<g id="edge8" class="edge">
<title>SignInComponent&#45;&gt;AppModule</title>
<path fill="none" stroke="black" d="M592,-198.02C592,-215.37 592,-239 592,-239 592,-239 887.14,-239 887.14,-239"/>
<polygon fill="black" stroke="black" points="887.14,-242.5 897.14,-239 887.14,-235.5 887.14,-242.5"/>
</g>
<!-- Test3Component -->
<g id="node9" class="node">
<title>Test3Component</title>
<polygon fill="#ffffb3" stroke="black" points="514.44,-198 401.56,-198 401.56,-162 514.44,-162 514.44,-198"/>
<text text-anchor="middle" x="458" y="-175.8" font-family="Times,serif" font-size="14.00">Test3Component</text>
</g>
<!-- Test3Component&#45;&gt;AppModule -->
<g id="edge9" class="edge">
<title>Test3Component&#45;&gt;AppModule</title>
<path fill="none" stroke="black" d="M458,-198.11C458,-217.34 458,-245 458,-245 458,-245 887.16,-245 887.16,-245"/>
<polygon fill="black" stroke="black" points="887.16,-248.5 897.16,-245 887.16,-241.5 887.16,-248.5"/>
</g>
<!-- AppComponent  -->
<g id="node12" class="node">
<title>AppComponent </title>
<polygon fill="#80b1d3" stroke="black" points="993.44,-328 884.56,-328 884.56,-292 993.44,-292 993.44,-328"/>
<text text-anchor="middle" x="939" y="-305.8" font-family="Times,serif" font-size="14.00">AppComponent </text>
</g>
<!-- AppModule&#45;&gt;AppComponent  -->
<g id="edge11" class="edge">
<title>AppModule&#45;&gt;AppComponent </title>
<path fill="none" stroke="black" stroke-dasharray="1,5" d="M939,-263.11C939,-263.11 939,-281.99 939,-281.99"/>
<polygon fill="black" stroke="black" points="935.5,-281.99 939,-291.99 942.5,-281.99 935.5,-281.99"/>
</g>
<!-- AppRoutingModule -->
<g id="node11" class="node">
<title>AppRoutingModule</title>
<polygon fill="#8dd3c7" stroke="black" points="378.27,-198 375.27,-202 354.27,-202 351.27,-198 249.73,-198 249.73,-162 378.27,-162 378.27,-198"/>
<text text-anchor="middle" x="314" y="-175.8" font-family="Times,serif" font-size="14.00">AppRoutingModule</text>
</g>
<!-- AppRoutingModule&#45;&gt;AppModule -->
<g id="edge10" class="edge">
<title>AppRoutingModule&#45;&gt;AppModule</title>
<path fill="none" stroke="black" d="M314,-198.28C314,-219.32 314,-251 314,-251 314,-251 887.02,-251 887.02,-251"/>
<polygon fill="black" stroke="black" points="887.02,-254.5 897.02,-251 887.02,-247.5 887.02,-254.5"/>
</g>
<!-- AuthHeaderInterceptor -->
<g id="node13" class="node">
<title>AuthHeaderInterceptor</title>
<ellipse fill="#fdb462" stroke="black" cx="125" cy="-180" rx="100.66" ry="18"/>
<text text-anchor="middle" x="125" y="-175.8" font-family="Times,serif" font-size="14.00">AuthHeaderInterceptor</text>
</g>
<!-- AuthHeaderInterceptor&#45;&gt;AppModule -->
<g id="edge12" class="edge">
<title>AuthHeaderInterceptor&#45;&gt;AppModule</title>
<path fill="none" stroke="black" d="M125,-198.25C125,-221.02 125,-257 125,-257 125,-257 887.23,-257 887.23,-257"/>
<polygon fill="black" stroke="black" points="887.23,-260.5 897.23,-257 887.23,-253.5 887.23,-260.5"/>
</g>
<!-- AuthService -->
<g id="node14" class="node">
<title>AuthService</title>
<ellipse fill="#fdb462" stroke="black" cx="314" cy="-104" rx="59.11" ry="18"/>
<text text-anchor="middle" x="314" y="-99.8" font-family="Times,serif" font-size="14.00">AuthService</text>
</g>
<!-- AuthService&#45;&gt;AppRoutingModule -->
<g id="edge13" class="edge">
<title>AuthService&#45;&gt;AppRoutingModule</title>
<path fill="none" stroke="black" d="M314,-122.01C314,-122.01 314,-151.85 314,-151.85"/>
<polygon fill="black" stroke="black" points="310.5,-151.85 314,-161.85 317.5,-151.85 310.5,-151.85"/>
</g>
</g>
</svg>
