<?xml version="1.0" encoding="UTF-8" standalone="no"?>
<!DOCTYPE svg PUBLIC "-//W3C//DTD SVG 1.1//EN"
 "http://www.w3.org/Graphics/SVG/1.1/DTD/svg11.dtd">
<!-- Generated by graphviz version 2.47.0 (20210316.0004)
 -->
<!-- Title: dependencies Pages: 1 -->
<svg width="1474pt" height="360pt"
 viewBox="0.00 0.00 1474.00 360.00" xmlns="http://www.w3.org/2000/svg" xmlns:xlink="http://www.w3.org/1999/xlink">
<g id="graph0" class="graph" transform="scale(1 1) rotate(0) translate(4 356)">
<title>dependencies</title>
<polygon fill="white" stroke="transparent" points="-4,4 -4,-356 1470,-356 1470,4 -4,4"/>
<text text-anchor="start" x="712.01" y="-42.4" font-family="sans-serif" font-weight="bold" font-size="14.00">Legend</text>
<polygon fill="#ffffb3" stroke="transparent" points="499,-10 499,-30 519,-30 519,-10 499,-10"/>
<text text-anchor="start" x="522.63" y="-15.4" font-family="sans-serif" font-size="14.00"> &#160;Declarations</text>
<polygon fill="#8dd3c7" stroke="transparent" points="612,-10 612,-30 632,-30 632,-10 612,-10"/>
<text text-anchor="start" x="635.73" y="-15.4" font-family="sans-serif" font-size="14.00"> &#160;Module</text>
<polygon fill="#80b1d3" stroke="transparent" points="698,-10 698,-30 718,-30 718,-10 698,-10"/>
<text text-anchor="start" x="721.78" y="-15.4" font-family="sans-serif" font-size="14.00"> &#160;Bootstrap</text>
<polygon fill="#fdb462" stroke="transparent" points="795,-10 795,-30 815,-30 815,-10 795,-10"/>
<text text-anchor="start" x="818.67" y="-15.4" font-family="sans-serif" font-size="14.00"> &#160;Providers</text>
<polygon fill="#fb8072" stroke="transparent" points="891,-10 891,-30 911,-30 911,-10 891,-10"/>
<text text-anchor="start" x="914.73" y="-15.4" font-family="sans-serif" font-size="14.00"> &#160;Exports</text>
<g id="clust1" class="cluster">
<title>cluster_AppModule</title>
<polygon fill="none" stroke="black" stroke-dasharray="1,5" points="8,-146 8,-344 1458,-344 1458,-146 8,-146"/>
</g>
<g id="clust2" class="cluster">
<title>cluster_AppModule_declarations</title>
<polygon fill="none" stroke="black" points="394,-154 394,-206 1450,-206 1450,-154 394,-154"/>
</g>
<g id="clust10" class="cluster">
<title>cluster_AppModule_imports</title>
<polygon fill="none" stroke="black" points="242,-154 242,-206 386,-206 386,-154 242,-154"/>
</g>
<g id="clust12" class="cluster">
<title>cluster_AppModule_bootstrap</title>
<polygon fill="none" stroke="black" points="702,-284 702,-336 826,-336 826,-284 702,-284"/>
</g>
<g id="clust13" class="cluster">
<title>cluster_AppModule_providers</title>
<polygon fill="none" stroke="black" points="16,-154 16,-206 234,-206 234,-154 16,-154"/>
</g>
<g id="clust14" class="cluster">
<title>cluster_AppRoutingModule</title>
<polygon fill="none" stroke="black" stroke-dasharray="1,5" points="239,-70 239,-138 389,-138 389,-70 239,-70"/>
</g>
<g id="clust19" class="cluster">
<title>cluster_AppRoutingModule_providers</title>
<polygon fill="none" stroke="black" points="247,-78 247,-130 381,-130 381,-78 247,-78"/>
</g>
<!-- AllInitiativeComponent -->
<g id="node1" class="node">
<title>AllInitiativeComponent</title>
<polygon fill="#ffffb3" stroke="black" points="1441.76,-198 1292.24,-198 1292.24,-162 1441.76,-162 1441.76,-198"/>
<text text-anchor="middle" x="1367" y="-175.8" font-family="Times,serif" font-size="14.00">AllInitiativeComponent</text>
</g>
<!-- AppModule -->
<g id="node8" class="node">
<title>AppModule</title>
<polygon fill="#8dd3c7" stroke="black" points="805.66,-263 802.66,-267 781.66,-267 778.66,-263 722.34,-263 722.34,-227 805.66,-227 805.66,-263"/>
<text text-anchor="middle" x="764" y="-240.8" font-family="Times,serif" font-size="14.00">AppModule</text>
</g>
<!-- AllInitiativeComponent&#45;&gt;AppModule -->
<g id="edge1" class="edge">
<title>AllInitiativeComponent&#45;&gt;AppModule</title>
<path fill="none" stroke="black" d="M1367,-198.01C1367,-220.49 1367,-256 1367,-256 1367,-256 815.92,-256 815.92,-256"/>
<polygon fill="black" stroke="black" points="815.92,-252.5 805.92,-256 815.92,-259.5 815.92,-252.5"/>
</g>
<!-- AppComponent -->
<g id="node2" class="node">
<title>AppComponent</title>
<polygon fill="#ffffb3" stroke="black" points="1273.94,-198 1168.06,-198 1168.06,-162 1273.94,-162 1273.94,-198"/>
<text text-anchor="middle" x="1221" y="-175.8" font-family="Times,serif" font-size="14.00">AppComponent</text>
</g>
<!-- AppComponent&#45;&gt;AppModule -->
<g id="edge2" class="edge">
<title>AppComponent&#45;&gt;AppModule</title>
<path fill="none" stroke="black" d="M1221,-198.13C1221,-218.57 1221,-249 1221,-249 1221,-249 815.77,-249 815.77,-249"/>
<polygon fill="black" stroke="black" points="815.77,-245.5 805.77,-249 815.77,-252.5 815.77,-245.5"/>
</g>
<!-- CallbackComponent -->
<g id="node3" class="node">
<title>CallbackComponent</title>
<polygon fill="#ffffb3" stroke="black" points="1150.59,-198 1019.41,-198 1019.41,-162 1150.59,-162 1150.59,-198"/>
<text text-anchor="middle" x="1085" y="-175.8" font-family="Times,serif" font-size="14.00">CallbackComponent</text>
</g>
<!-- CallbackComponent&#45;&gt;AppModule -->
<g id="edge3" class="edge">
<title>CallbackComponent&#45;&gt;AppModule</title>
<path fill="none" stroke="black" d="M1085,-198.27C1085,-216.56 1085,-242 1085,-242 1085,-242 815.97,-242 815.97,-242"/>
<polygon fill="black" stroke="black" points="815.97,-238.5 805.97,-242 815.97,-245.5 815.97,-238.5"/>
</g>
<!-- NavBarComponent -->
<g id="node4" class="node">
<title>NavBarComponent</title>
<polygon fill="#ffffb3" stroke="black" points="1001.37,-198 876.63,-198 876.63,-162 1001.37,-162 1001.37,-198"/>
<text text-anchor="middle" x="939" y="-175.8" font-family="Times,serif" font-size="14.00">NavBarComponent</text>
</g>
<!-- NavBarComponent&#45;&gt;AppModule -->
<g id="edge4" class="edge">
<title>NavBarComponent&#45;&gt;AppModule</title>
<path fill="none" stroke="black" d="M939,-198.01C939,-214.05 939,-235 939,-235 939,-235 815.92,-235 815.92,-235"/>
<polygon fill="black" stroke="black" points="815.92,-231.5 805.92,-235 815.92,-238.5 815.92,-231.5"/>
</g>
<!-- NewInitiativeFormComponent -->
<g id="node5" class="node">
<title>NewInitiativeFormComponent</title>
<polygon fill="#ffffb3" stroke="black" points="858.14,-198 669.86,-198 669.86,-162 858.14,-162 858.14,-198"/>
<text text-anchor="middle" x="764" y="-175.8" font-family="Times,serif" font-size="14.00">NewInitiativeFormComponent</text>
</g>
<!-- NewInitiativeFormComponent&#45;&gt;AppModule -->
<g id="edge5" class="edge">
<title>NewInitiativeFormComponent&#45;&gt;AppModule</title>
<path fill="none" stroke="black" d="M764,-198.11C764,-198.11 764,-216.99 764,-216.99"/>
<polygon fill="black" stroke="black" points="760.5,-216.99 764,-226.99 767.5,-216.99 760.5,-216.99"/>
</g>
<!-- SignInComponent -->
<g id="node6" class="node">
<title>SignInComponent</title>
<polygon fill="#ffffb3" stroke="black" points="651.17,-198 532.83,-198 532.83,-162 651.17,-162 651.17,-198"/>
<text text-anchor="middle" x="592" y="-175.8" font-family="Times,serif" font-size="14.00">SignInComponent</text>
</g>
<!-- SignInComponent&#45;&gt;AppModule -->
<g id="edge6" class="edge">
<title>SignInComponent&#45;&gt;AppModule</title>
<path fill="none" stroke="black" d="M592,-198.01C592,-214.05 592,-235 592,-235 592,-235 711.92,-235 711.92,-235"/>
<polygon fill="black" stroke="black" points="711.92,-238.5 721.92,-235 711.92,-231.5 711.92,-238.5"/>
</g>
<!-- Test3Component -->
<g id="node7" class="node">
<title>Test3Component</title>
<polygon fill="#ffffb3" stroke="black" points="514.44,-198 401.56,-198 401.56,-162 514.44,-162 514.44,-198"/>
<text text-anchor="middle" x="458" y="-175.8" font-family="Times,serif" font-size="14.00">Test3Component</text>
</g>
<!-- Test3Component&#45;&gt;AppModule -->
<g id="edge7" class="edge">
<title>Test3Component&#45;&gt;AppModule</title>
<path fill="none" stroke="black" d="M458,-198.27C458,-216.56 458,-242 458,-242 458,-242 712.09,-242 712.09,-242"/>
<polygon fill="black" stroke="black" points="712.09,-245.5 722.09,-242 712.09,-238.5 712.09,-245.5"/>
</g>
<!-- AppComponent  -->
<g id="node10" class="node">
<title>AppComponent </title>
<polygon fill="#80b1d3" stroke="black" points="818.44,-328 709.56,-328 709.56,-292 818.44,-292 818.44,-328"/>
<text text-anchor="middle" x="764" y="-305.8" font-family="Times,serif" font-size="14.00">AppComponent </text>
</g>
<!-- AppModule&#45;&gt;AppComponent  -->
<g id="edge9" class="edge">
<title>AppModule&#45;&gt;AppComponent </title>
<path fill="none" stroke="black" stroke-dasharray="1,5" d="M764,-263.11C764,-263.11 764,-281.99 764,-281.99"/>
<polygon fill="black" stroke="black" points="760.5,-281.99 764,-291.99 767.5,-281.99 760.5,-281.99"/>
</g>
<!-- AppRoutingModule -->
<g id="node9" class="node">
<title>AppRoutingModule</title>
<polygon fill="#8dd3c7" stroke="black" points="378.27,-198 375.27,-202 354.27,-202 351.27,-198 249.73,-198 249.73,-162 378.27,-162 378.27,-198"/>
<text text-anchor="middle" x="314" y="-175.8" font-family="Times,serif" font-size="14.00">AppRoutingModule</text>
</g>
<!-- AppRoutingModule&#45;&gt;AppModule -->
<g id="edge8" class="edge">
<title>AppRoutingModule&#45;&gt;AppModule</title>
<path fill="none" stroke="black" d="M314,-198.13C314,-218.57 314,-249 314,-249 314,-249 712.07,-249 712.07,-249"/>
<polygon fill="black" stroke="black" points="712.07,-252.5 722.07,-249 712.07,-245.5 712.07,-252.5"/>
</g>
<!-- AuthHeaderInterceptor -->
<g id="node11" class="node">
<title>AuthHeaderInterceptor</title>
<ellipse fill="#fdb462" stroke="black" cx="125" cy="-180" rx="100.66" ry="18"/>
<text text-anchor="middle" x="125" y="-175.8" font-family="Times,serif" font-size="14.00">AuthHeaderInterceptor</text>
</g>
<!-- AuthHeaderInterceptor&#45;&gt;AppModule -->
<g id="edge10" class="edge">
<title>AuthHeaderInterceptor&#45;&gt;AppModule</title>
<path fill="none" stroke="black" d="M125,-198.01C125,-220.49 125,-256 125,-256 125,-256 712.07,-256 712.07,-256"/>
<polygon fill="black" stroke="black" points="712.07,-259.5 722.07,-256 712.07,-252.5 712.07,-259.5"/>
</g>
<!-- AuthService -->
<g id="node12" class="node">
<title>AuthService</title>
<ellipse fill="#fdb462" stroke="black" cx="314" cy="-104" rx="59.11" ry="18"/>
<text text-anchor="middle" x="314" y="-99.8" font-family="Times,serif" font-size="14.00">AuthService</text>
</g>
<!-- AuthService&#45;&gt;AppRoutingModule -->
<g id="edge11" class="edge">
<title>AuthService&#45;&gt;AppRoutingModule</title>
<path fill="none" stroke="black" d="M314,-122.01C314,-122.01 314,-151.85 314,-151.85"/>
<polygon fill="black" stroke="black" points="310.5,-151.85 314,-161.85 317.5,-151.85 310.5,-151.85"/>
</g>
</g>
</svg>
